# xmcd
# Copyright (C) 1995-1998 Ti Kan
#
# Track frame offsets:
#       150
#       10706
#       24785
#       40866
#       57013
#       93490
#       106213
#       115265
#       130078
#       140577
#       150697
#       169447
#       176653
#       192979
#       205501
#       232369
#       243980
#       271560
#       284060
#
# Disc length: 4023 seconds
#
# Revision: 0
# Processed by: cddbd v1.4PL0 Copyright (c) Steve Scherf et al.
# Submitted via: CD-Transfer v1.0
#
DISCID=040fb513
DTITLE=Les Sauterelles - The Beat Goes On, Live
DYEAR=2002
DGENRE=
TTITLE0=Talking About You
TTITLE1=The Price Of Love
TTITLE2=Mr. Tambourine Man
TTITLE3=Like A Rolling Stone
TTITLE4=Italo-Medley
TTITLE5=Montgolfier
TTITLE6=Stg. Pepper's Lonely Hearts Club Band
TTITLE7=Lucy In The Sky With Diamonds
TTITLE8=Paperback Writer
TTITLE9=And Your Bird Can Sing
TTITLE10=Taxman
TTITLE11=Hongkong (Live)
TTITLE12=Walking The Dog
TTITLE13=Cadillac
TTITLE14=Kinks-Medley
TTITLE15=Heavenly Club (Live)
TTITLE16=Dream Machine
TTITLE17=Roll Over Beethoven
TTITLE18=Don't Let Me Down
EXTD=
EXTT0=
EXTT1=
EXTT2=
EXTT3=
EXTT4=
EXTT5=
EXTT6=
EXTT7=
EXTT8=
EXTT9=
EXTT10=
EXTT11=
EXTT12=
EXTT13=
EXTT14=
EXTT15=
EXTT16=
EXTT17=
EXTT18=
PLAYORDER=
